<?xml version="1.0" encoding="utf-8"?>
<!-- Generator: Adobe Illustrator 17.0.2, SVG Export Plug-In . SVG Version: 6.00 Build 0)  -->
<!DOCTYPE svg PUBLIC "-//W3C//DTD SVG 1.1//EN" "http://www.w3.org/Graphics/SVG/1.1/DTD/svg11.dtd">
<svg version="1.1" id="Layer_1" xmlns="http://www.w3.org/2000/svg" xmlns:xlink="http://www.w3.org/1999/xlink" x="0px" y="0px"
	 width="163.985px" height="83.116px" viewBox="0 0 163.985 83.116" enable-background="new 0 0 163.985 83.116"
	 xml:space="preserve">
<path fill="#FFFFFF" stroke="#000000" stroke-width="1.1854" stroke-miterlimit="10" d="M2.032,7.351l129.463-0.104
	c0,0,3.569-0.084,8.979,1.214c7.327,1.758,18.443,4.368,18.443,4.368s2.426,0.243,2.426,2.912s0,22.811,0,22.811
	s0.728,1.699-1.942,2.912c-2.669,1.214-21.599,5.582-21.599,5.582s-4.611,0.485-6.31,0.485c-1.699,0-129.831,0.243-129.831,0.243
	v-7.281h3.883c0,0,3.187,0.232,3.397-4.611c0.252-5.824,0.243-18.686,0.243-18.686s0.971-3.154-3.64-3.154s-3.64,0-3.64,0
	L2.032,7.351z M28.379,12.323L28.408,42.7c0,0,91.679,0,102.626-0.274s16.42-5.2,16.42-5.2V19.985
	c-0.548-7.662-17.515-7.662-17.515-7.662H28.379"/>
<path fill="#FFFFFF" stroke="#000000" stroke-width="1.5323" stroke-miterlimit="10" d="M124.116,16.647
	c0,0-13.51-0.468-13.385,11.063c0.117,10.834,11.92,9.504,11.92,9.504"/>
<rect x="35.711" y="16.495" fill="#FFFFFF" stroke="#000000" stroke-width="1.3557" stroke-miterlimit="10" width="16.006" height="5.002"/>
<ellipse transform="matrix(0.0306 0.9995 -0.9995 0.0306 145.891 -96.5554)" fill="#FFFFFF" stroke="#000000" stroke-width="1.1854" stroke-miterlimit="10" cx="122.724" cy="26.935" rx="5.967" ry="7.258"/>
<rect x="14.732" y="50.577" fill="none" width="129.983" height="20.066"/>
<text transform="matrix(1 0 0 1 6.7271 66.1686)" fill="#FFFFFF" font-family="'Optima-Regular'" font-size="19">DCO Cameras Inc</text>
</svg>
