<?xml version="1.0" encoding="utf-8"?>
<!-- Generator: Adobe Illustrator 18.1.0, SVG Export Plug-In . SVG Version: 6.00 Build 0)  -->
<!DOCTYPE svg PUBLIC "-//W3C//DTD SVG 1.1//EN" "http://www.w3.org/Graphics/SVG/1.1/DTD/svg11.dtd">
<svg version="1.1" id="Layer_1" xmlns="http://www.w3.org/2000/svg" xmlns:xlink="http://www.w3.org/1999/xlink" x="0px" y="0px"
	 viewBox="-290 381.5 30.1 30.5" enable-background="new -290 381.5 30.1 30.5" xml:space="preserve">
<g>
	<g>
		<path fill="none" stroke="#21409A" stroke-width="2" stroke-miterlimit="10" d="M-289,403.9c0,1.5,2.4,3.9,3.8,3.9h17.9
			c1.5,0,3.8-2.4,3.8-3.9v-17.5c0-1.5-2.4-3.9-3.8-3.9h-17.9c-1.5,0-3.8,2.4-3.8,3.9V403.9z"/>
	</g>
</g>
<g>
	<g>
		<path fill="#21409A" d="M-273,387.5l0,2.7h-1.9c0,0-0.7,0.2-0.7,0.6c0,0.4,0,1.9,0,1.9l2.6,0l-0.5,2.8h-2.1v7.1l-2.6,0l0-7.2
			l-1.9,0l0-2.8h1.8l0-2.6c0,0,0.4-2.6,2.7-2.6C-273.1,387.5-273,387.5-273,387.5z"/>
	</g>
</g>
</svg>
