<?xml version="1.0" encoding="utf-8"?>
<!-- Generator: Adobe Illustrator 17.0.2, SVG Export Plug-In . SVG Version: 6.00 Build 0)  -->
<!DOCTYPE svg PUBLIC "-//W3C//DTD SVG 1.1//EN" "http://www.w3.org/Graphics/SVG/1.1/DTD/svg11.dtd">
<svg version="1.1" id="Layer_1" xmlns="http://www.w3.org/2000/svg" xmlns:xlink="http://www.w3.org/1999/xlink" x="0px" y="0px"
	 width="30.089px" height="30.498px" viewBox="0 0 30.089 30.498" enable-background="new 0 0 30.089 30.498" xml:space="preserve">
<g>
	<g>
		<path fill="none" stroke="#21409A" stroke-width="2" stroke-miterlimit="10" d="M1.293,22.431c0,1.483,2.374,3.865,3.846,3.865
			h17.883c1.472,0,3.846-2.383,3.846-3.865V4.903c0-1.483-2.374-3.865-3.846-3.865H5.139c-1.472,0-3.846,2.383-3.846,3.865V22.431z"
			/>
	</g>
</g>
<g>
	<g>
		<path fill="#21409A" d="M17.299,6.02l-0.048,2.662h-1.854c0,0-0.713,0.19-0.713,0.618s0,1.854,0,1.854l2.616,0.007l-0.479,2.833
			h-2.115v7.104l-2.607,0.013l-0.013-7.157l-1.876,0.013l0.013-2.794h1.849l0.013-2.594c0,0,0.359-2.607,2.74-2.607
			S17.299,6.02,17.299,6.02z"/>
	</g>
</g>
</svg>
