<?xml version="1.0" encoding="utf-8"?>
<!-- Generator: Adobe Illustrator 17.0.2, SVG Export Plug-In . SVG Version: 6.00 Build 0)  -->
<!DOCTYPE svg PUBLIC "-//W3C//DTD SVG 1.1//EN" "http://www.w3.org/Graphics/SVG/1.1/DTD/svg11.dtd">
<svg version="1.1" id="Layer_1" xmlns="http://www.w3.org/2000/svg" xmlns:xlink="http://www.w3.org/1999/xlink" x="0px" y="0px"
	 width="43.918px" height="29.917px" viewBox="0 0 43.918 29.917" enable-background="new 0 0 43.918 29.917" xml:space="preserve">
<g>
	<path fill="#FFFFFF" d="M10.22,25.892c0,0-0.371-2.601,13.95-2.684c16.12-0.094,15.156,1.978,15.156,1.978
		s1.185,3.024-14.639,3.108C8.662,28.38,10.22,25.892,10.22,25.892z"/>
</g>
<g>
	<path fill="#FFFFFF" d="M10.341,3.106c0,0-0.371-2.601,13.95-2.684C40.411,0.328,39.447,2.4,39.447,2.4s1.185,3.024-14.639,3.108
		C8.783,5.594,10.341,3.106,10.341,3.106z"/>
</g>
<g>
	<path fill="#FFFFFF" d="M10.341,14.037c0,0-0.371-2.601,13.95-2.684c16.12-0.094,15.156,1.978,15.156,1.978
		s1.185,3.024-14.639,3.108C8.783,16.524,10.341,14.037,10.341,14.037z"/>
</g>
<rect x="9.994" y="0" fill="#FFFFFF" width="30.101" height="5.676"/>
<rect x="9.937" y="11.246" fill="#FFFFFF" width="30.101" height="5.676"/>
<rect x="9.765" y="23.057" fill="#FFFFFF" width="30.101" height="5.676"/>
</svg>
