<?xml version="1.0" encoding="utf-8"?>
<!-- Generator: Adobe Illustrator 18.1.0, SVG Export Plug-In . SVG Version: 6.00 Build 0)  -->
<!DOCTYPE svg PUBLIC "-//W3C//DTD SVG 1.1//EN" "http://www.w3.org/Graphics/SVG/1.1/DTD/svg11.dtd">
<svg version="1.1" id="Layer_1" xmlns="http://www.w3.org/2000/svg" xmlns:xlink="http://www.w3.org/1999/xlink" x="0px" y="0px"
	 viewBox="-290 381 30.6 31" enable-background="new -290 381 30.6 31" xml:space="preserve">
<g>
	<g>
		<path fill="none" stroke="#1C75BC" stroke-width="2" stroke-miterlimit="10" d="M-289,403.4c0,1.5,2.4,3.9,3.8,3.9h17.8
			c1.5,0,3.8-2.4,3.8-3.9v-17.5c0-1.5-2.4-3.9-3.8-3.9h-17.8c-1.5,0-3.8,2.4-3.8,3.9C-289,385.9-289,403.4-289,403.4z"/>
	</g>
</g>
<g>
	<g>
		<polygon fill="#1D75BC" points="-284.4,391.4 -280.9,391.4 -280.9,402 -284.4,402 		"/>
	</g>
</g>
<g>
	<g>
		<path fill="#1D75BC" d="M-278.8,391h3.4v1.9c0,0,4.6-5,7.1,1.2v7.6h-3.4v-6.2c0,0-1.3-3.5-3.7,0.1v6.1h-3.4L-278.8,391L-278.8,391
			z"/>
	</g>
</g>
<g>
	<g>
		<circle fill="#1D75BC" cx="-282.6" cy="386.8" r="1.8"/>
	</g>
</g>
</svg>
