<?xml version="1.0" encoding="utf-8"?>
<!-- Generator: Adobe Illustrator 17.0.2, SVG Export Plug-In . SVG Version: 6.00 Build 0)  -->
<!DOCTYPE svg PUBLIC "-//W3C//DTD SVG 1.1//EN" "http://www.w3.org/Graphics/SVG/1.1/DTD/svg11.dtd">
<svg version="1.1" id="Layer_1" xmlns="http://www.w3.org/2000/svg" xmlns:xlink="http://www.w3.org/1999/xlink" x="0px" y="0px"
	 width="30.264px" height="32.518px" viewBox="0 0 30.264 32.518" enable-background="new 0 0 30.264 32.518" xml:space="preserve">
<g>
	<g>
		
			<linearGradient id="SVGID_1_" gradientUnits="userSpaceOnUse" x1="-93.9127" y1="-48.0715" x2="-93.7474" y2="-20.6884" gradientTransform="matrix(1 0 0 -1 108 -20.482)">
			<stop  offset="0.5499" style="stop-color:#39B9EB"/>
			<stop  offset="0.5633" style="stop-color:#39B9EB"/>
		</linearGradient>
		<path fill="none" stroke="url(#SVGID_1_)" stroke-width="2" stroke-miterlimit="10" d="M1.374,22.668
			c0,1.484,2.375,3.868,3.849,3.868h17.895c1.473,0,3.849-2.384,3.849-3.868V5.128c0-1.484-2.375-3.868-3.849-3.868H5.222
			c-1.473,0-3.849,2.384-3.849,3.868L1.374,22.668L1.374,22.668z"/>
	</g>
</g>
<g>
	<g>
		<path fill="#39B9EB" d="M6.715,19.502c0,0,12.829,6.455,14.331-8.406c0,0,1.707-1.191,1.707-1.744L21.14,9.629l1.197-1.566
			l-2.026,0.599c0,0-5.296-3.638-5.894,3.085c0,0-4.375-0.368-6.631-3.362c0,0-1.474,2.256,0.783,4.237c0,0-1.013,0-1.289-0.276
			c0,0-0.691,2.303,2.349,3.362L8.43,15.753c0,0,0.184,1.704,2.947,2.256C11.377,18.01,10.065,19.383,6.715,19.502z"/>
	</g>
</g>
</svg>
