<?xml version="1.0" encoding="utf-8"?>
<!-- Generator: Adobe Illustrator 18.1.0, SVG Export Plug-In . SVG Version: 6.00 Build 0)  -->
<!DOCTYPE svg PUBLIC "-//W3C//DTD SVG 1.1//EN" "http://www.w3.org/Graphics/SVG/1.1/DTD/svg11.dtd">
<svg version="1.1" id="Layer_1" xmlns="http://www.w3.org/2000/svg" xmlns:xlink="http://www.w3.org/1999/xlink" x="0px" y="0px"
	 viewBox="-290 380.5 30.3 32.5" enable-background="new -290 380.5 30.3 32.5" xml:space="preserve">
<g>
	<g>
		
			<linearGradient id="SVGID_1_" gradientUnits="userSpaceOnUse" x1="-384.2856" y1="1220.2936" x2="-384.1204" y2="1192.9104" gradientTransform="matrix(1 0 0 1 108 -812.482)">
			<stop  offset="0.5499" style="stop-color:#39B9EB"/>
			<stop  offset="0.5633" style="stop-color:#39B9EB"/>
		</linearGradient>
		<path fill="none" stroke="url(#SVGID_1_)" stroke-width="2" stroke-miterlimit="10" d="M-289,402.9c0,1.5,2.4,3.9,3.8,3.9h17.9
			c1.5,0,3.8-2.4,3.8-3.9v-17.5c0-1.5-2.4-3.9-3.8-3.9h-17.9c-1.5,0-3.8,2.4-3.8,3.9L-289,402.9L-289,402.9z"/>
	</g>
</g>
<g>
	<g>
		<path fill="#39B9EB" d="M-283.7,399.7c0,0,12.8,6.5,14.3-8.4c0,0,1.7-1.2,1.7-1.7l-1.6,0.3l1.2-1.6l-2,0.6c0,0-5.3-3.6-5.9,3.1
			c0,0-4.4-0.4-6.6-3.4c0,0-1.5,2.3,0.8,4.2c0,0-1,0-1.3-0.3c0,0-0.7,2.3,2.3,3.4l-1.2,0c0,0,0.2,1.7,2.9,2.3
			C-279,398.2-280.3,399.6-283.7,399.7z"/>
	</g>
</g>
</svg>
